<?xml version="1.0" standalone="no"?> <!DOCTYPE svg PUBLIC "-//W3C//DTD SVG 1.0//EN" "http://www.w3.org/TR/2001/REC-SVG-20010904/DTD/svg10.dtd" > <svg xmlns="http://www.w3.org/2000/svg" width="100%" height="100%">
<defs >
<font id="best_future_medium_v1" horiz-adv-x="470" ><font-face
    font-family="Best Future V1"
    units-per-em="1000"
    panose-1="2 0 6 4 2 0 0 2 0 4"
    ascent="722"
    descent="-278"
    alphabetic="0" />
<missing-glyph horiz-adv-x="450" d="M0 0V630H450V0H0ZM225 355L378 585H72L225 355ZM252 315L405 85V544L252 315ZM72 45H378L225 274L72 45ZM45 544V85L198 315L45 544Z" />
<glyph unicode=" " glyph-name="space" horiz-adv-x="240" />
<glyph unicode="!" glyph-name="exclam" horiz-adv-x="270" d="M178 636V184H95V636H178ZM80 22T80 45T96 84T138 100Q161 100 177 84T194 45T178 6T138 -11Q113 -11 97 5Z" />
<glyph unicode="&quot;" glyph-name="quotedbl" horiz-adv-x="405" d="M165 433H85V722H165V433ZM317 433H237V722H317V433Z" />
<glyph unicode="#" glyph-name="numbersign" horiz-adv-x="774" d="M489 162L448 0H369L409 162H254L213 0H134L174 162H55V245H194L223 362H55V446H244L292 636H374L326 446H479L527 636H609L561 446H676V362H539L510 245H676V162H489ZM304 362L275 245H429L458
362H304Z" />
<glyph unicode="$" glyph-name="dollar" horiz-adv-x="608" d="M49 41V119Q148 68 275 62V275H274Q150 305 95 350T39 471Q39 538 101 588T275 645V722H349V646Q460 640 543 601V527Q457 565 349 572V337Q477 304 526 266T575 159Q575 89 518 44T349 -9V-106H275V-10Q142
-4 49 41ZM127 473Q127 431 159 405T275 356V572Q202 566 165 539T127 473ZM487 157Q487 193 459 213T349 256V63Q487 74 487 157Z" />
<glyph unicode="%" glyph-name="percent" horiz-adv-x="999" d="M239 647Q324 647 383 600T442 475Q442 393 383 346T239 299Q157 299 97 346T37 475Q37 552 97 599T239 647ZM239 365Q291 365 324 394T358 475Q358 523 324 552T239 581Q189 581 154 552T119 475Q119
424 154 395T239 365ZM749 337Q834 337 892 291T951 166Q951 83 893 36T749 -11Q666 -11 606 36T546 166Q546 243 606 290T749 337ZM749 55Q800 55 834 85T868 166Q868 213 834 242T749 271Q699 271 664 242T628 166Q628 115 663 85T749 55ZM291 0L794 636H699L193
0H291Z" />
<glyph unicode="&amp;" glyph-name="ampersand" horiz-adv-x="802" d="M33 175Q33 241 83 290T221 367Q149 432 149 503Q149 568 209 607T375 647Q450 647 531 623V558Q455 585 373 583Q232 580 232 504Q232 482 248 458T278 420T325 381L788 9L785 0H675L279
318Q127 276 127 178Q127 119 181 90T315 60Q449 60 536 93L508 29Q501 14 478 8Q412 -11 304 -11Q232 -11 172 9T73 72T33 175Z" />
<glyph unicode="&apos;" glyph-name="quotesingle" horiz-adv-x="262" d="M165 433H85V722H165V433Z" />
<glyph unicode="(" glyph-name="parenleft" horiz-adv-x="294" d="M248 -88H166Q72 66 72 300T166 690H247Q158 527 158 304T248 -88Z" />
<glyph unicode=")" glyph-name="parenright" horiz-adv-x="299" d="M62 689H144Q238 534 238 300T144 -89H63Q152 74 152 297T62 689Z" />
<glyph unicode="*" glyph-name="asterisk" horiz-adv-x="382" d="M67 588L155 553L153 647H226L224 553L314 588L340 521L247 486L304 410L244 369L189 448L134 371L76 412L133 488L42 521L67 588Z" />
<glyph unicode="+" glyph-name="plus" horiz-adv-x="646" d="M362 191V0H275V191H82V270H275V446H362V270H556V191H362Z" />
<glyph unicode="," glyph-name="comma" horiz-adv-x="277" d="M108 -174H31L133 102H219L108 -174Z" />
<glyph unicode="-" glyph-name="hyphen" horiz-adv-x="516" d="M436 245H82V326H436V245Z" />
<glyph unicode="." glyph-name="period" horiz-adv-x="268" d="M80 22T80 45T96 84T138 100Q162 100 178 84T194 45T178 6T138 -11Q113 -11 97 5Z" />
<glyph unicode="/" glyph-name="slash" horiz-adv-x="619" d="M590 703L110 -117H18L501 703H590Z" />
<glyph unicode="0" glyph-name="zero" horiz-adv-x="789" d="M397 647Q543 647 644 559T746 326Q746 169 645 79T397 -11Q330 -11 268 11T156 75T77 182T47 326Q47 422 98 497T228 609T397 647ZM398 62Q508 62 580 132T652 326Q652 440 580 507T397 574Q288 574
214 507T139 326Q139 204 214 133T398 62Z" />
<glyph unicode="1" glyph-name="one" horiz-adv-x="473" d="M367 636V0H284V550L82 440L45 507L284 636H367Z" />
<glyph unicode="2" glyph-name="two" horiz-adv-x="660" d="M61 80L416 330Q463 363 485 394T508 472Q508 517 462 545T321 574Q186 574 85 526V602Q186 647 321 647Q461 647 528 599T595 473Q595 410 562 365T469 277L192 79H598V0H61V80Z" />
<glyph unicode="3" glyph-name="three" horiz-adv-x="666" d="M225 358H343Q416 358 457 389T499 475Q499 574 313 574Q190 574 95 531V603Q201 647 313 647Q450 647 522 603T595 484Q595 382 488 329Q543 312 578 272T614 175Q614 93 536 41T323 -11Q188 -11
78 36V113Q122 91 193 77T322 62Q410 62 463 91T517 177Q517 227 474 257T352 288H225V358Z" />
<glyph unicode="4" glyph-name="four" horiz-adv-x="744" d="M572 636V229H694V148H572V0H490V148H58V236L450 636H572ZM155 229H490V568L155 229Z" />
<glyph unicode="5" glyph-name="five" horiz-adv-x="650" d="M564 566H191L161 384Q217 391 305 391Q458 391 535 338T612 192Q612 104 529 47T311 -11Q167 -11 66 36V113Q111 90 179 76T310 62Q411 62 466 95T522 193Q522 319 281 319Q196 319 94 305L71 326L123
636H564V566Z" />
<glyph unicode="6" glyph-name="six" horiz-adv-x="715" d="M371 62Q465 62 514 98T563 193Q563 329 371 329Q280 329 226 298T172 203Q172 129 227 96T371 62ZM371 404Q515 404 588 350T661 197Q661 105 585 47T373 -11Q169 -11 102 117Q63 191 63 318Q63 479
145 563T412 647Q529 647 627 607V531Q526 574 414 574Q335 574 281 554T199 498T162 421T154 329Q229 404 371 404Z" />
<glyph unicode="7" glyph-name="seven" horiz-adv-x="623" d="M132 0L490 559H48V636H589V563L234 0H132Z" />
<glyph unicode="8" glyph-name="eight" horiz-adv-x="715" d="M360 647Q501 647 573 602T646 470Q646 379 540 335Q677 292 677 175Q677 91 596 40T359 -11Q211 -11 127 41T43 176Q43 288 182 334Q76 374 76 470Q76 552 156 599T360 647ZM360 62Q462 62 515 91T569
176Q569 295 360 295Q143 295 143 176Q143 122 203 92T360 62ZM360 362Q445 362 495 393T545 472Q545 580 360 580Q273 580 221 552T168 470Q168 418 223 390T360 362Z" />
<glyph unicode="9" glyph-name="nine" horiz-adv-x="674" d="M327 574Q233 574 184 538T135 443Q135 307 327 307Q418 307 472 338T526 433Q526 507 471 540T327 574ZM327 232Q183 232 110 286T37 439Q37 531 113 589T325 647Q529 647 596 519Q635 445 635 318Q635
157 553 73T286 -11Q169 -11 71 29V105Q172 62 284 62Q363 62 417 82T499 138T536 215T544 307Q469 232 327 232Z" />
<glyph unicode=":" glyph-name="colon" horiz-adv-x="279" d="M86 378T86 401T102 440T144 456Q168 456 184 440T200 401T184 362T144 345Q119 345 103 361ZM86 22T86 45T102 84T144 100Q168 100 184 84T200 45T184 6T144 -11Q119 -11 103 5Z" />
<glyph unicode=";" glyph-name="semicolon" horiz-adv-x="277" d="M108 -174H31L133 102H219L108 -174ZM112 378T112 401T128 440T170 456Q194 456 210 440T226 401T210 362T170 345Q145 345 129 361Z" />
<glyph unicode="&lt;" glyph-name="less" horiz-adv-x="653" d="M424 589H555L192 297L555 0H424L92 273V321L424 589Z" />
<glyph unicode="=" glyph-name="equal" horiz-adv-x="594" d="M521 295H64V379H521V295ZM521 61H64V144H521V61Z" />
<glyph unicode="&gt;" glyph-name="greater" horiz-adv-x="653" d="M97 589H228L560 321V273L228 0H97L460 297L97 589Z" />
<glyph unicode="?" glyph-name="question" horiz-adv-x="434" d="M164 184V202Q164 259 180 290T249 373Q266 389 280 404T304 432T321 461T327 497Q327 581 190 581Q109 581 35 544V612Q111 647 190 647Q302 647 353 606T404 497Q404 463 388 430T354 376T301
322Q247 272 247 198V184H164ZM148 22T148 45T164 84T206 100Q229 100 245 84T262 45T246 6T206 -11Q181 -11 165 5Z" />
<glyph unicode="@" glyph-name="at" horiz-adv-x="997" d="M611 150V221Q576 227 518 227Q364 227 364 152Q364 117 400 98T491 79Q552 79 596 92L574 41Q564 17 477 17Q391 17 337 53T282 150Q282 216 343 249T517 283Q566 283 611 277V306Q611 392 479 392Q400
392 320 358V423Q398 454 482 454Q692 454 692 307V157Q692 93 743 93Q782 93 810 134T838 263Q838 397 742 485T492 574Q340 574 241 473T142 215T252 -32T532 -124Q676 -124 796 -58V-131Q688 -193 530 -193Q439 -193 355 -165T206 -85T102 45T63 215Q63 398
187 522T494 647T796 535T917 263Q917 143 864 83T742 22Q679 22 645 56T611 150Z" />
<glyph unicode="A" glyph-name="A" horiz-adv-x="844" d="M829 0H731L423 557H422L229 208Q250 229 303 229H568L530 161H257Q204 161 181 120L113 0H15L378 642H468L829 0Z" />
<glyph unicode="B" glyph-name="B" horiz-adv-x="650" d="M382 0H65V636H400Q490 636 541 592T592 480Q592 425 562 386T484 328Q539 315 574 275T609 180Q609 96 550 48T382 0ZM385 566H148V357H375Q436 357 471 387T506 471Q506 515 475 540T385 566ZM381 289H148V70H381Q448
70 484 99T521 183Q521 232 486 260T381 289Z" />
<glyph unicode="C" glyph-name="C" horiz-adv-x="760" d="M719 124V45Q609 -11 455 -11Q271 -11 153 81T35 328Q35 471 146 559T445 647Q593 647 719 592V515Q595 574 445 574Q302 574 213 507T123 329Q123 209 215 136T455 62Q603 62 719 124Z" />
<glyph unicode="D" glyph-name="D" horiz-adv-x="755" d="M376 566H158V70H376Q496 70 564 138T632 325Q632 437 565 501T376 566ZM73 636H384Q547 636 633 551T719 325Q719 182 631 91T384 0H73V636Z" />
<glyph unicode="E" glyph-name="E" horiz-adv-x="584" d="M553 70V0H65V636H553V566H148V338H535V268H148V70H553Z" />
<glyph unicode="F" glyph-name="F" horiz-adv-x="580" d="M148 241V0H65V636H553V566H148V311H529V241H148Z" />
<glyph unicode="G" glyph-name="G" horiz-adv-x="753" d="M713 294V39Q600 -11 449 -11Q275 -11 155 79T35 329Q35 471 147 559T437 647Q583 647 700 600V524Q583 574 439 574Q305 574 214 508T123 330Q123 245 169 183T289 92T449 62Q559 62 631 90V294H713Z" />
<glyph unicode="H" glyph-name="H" horiz-adv-x="765" d="M701 636V0H618V636H701ZM148 636V299Q169 343 232 343H590L553 273H214Q184 273 166 257T148 210V0H64V636H148Z" />
<glyph unicode="I" glyph-name="I" horiz-adv-x="242" d="M161 636V0H78V636H161Z" />
<glyph unicode="J" glyph-name="J" horiz-adv-x="404" d="M29 5V80Q72 62 133 62Q188 62 224 93T261 199V636H345V199Q345 95 295 42T150 -11Q76 -11 29 5Z" />
<glyph unicode="K" glyph-name="K" horiz-adv-x="679" d="M631 636L334 385L664 0H557L271 331L148 228V0H65V636H148V328L513 636H631Z" />
<glyph unicode="L" glyph-name="L" horiz-adv-x="556" d="M535 70V0H65V636H148V70H535Z" />
<glyph unicode="M" glyph-name="M" horiz-adv-x="824" d="M760 636V0H678V517L413 175L148 517V0H64V636H157L412 301L668 636H760Z" />
<glyph unicode="N" glyph-name="N" horiz-adv-x="732" d="M668 636V0H589L147 524V0H64V636H153L585 129V636H668Z" />
<glyph unicode="O" glyph-name="O" horiz-adv-x="822" d="M413 62Q534 62 615 135T697 326Q697 438 616 506T411 574Q291 574 207 505T122 326Q122 207 206 135T413 62ZM411 647Q511 647 596 608T734 495T786 326Q786 174 678 82T413 -11Q312 -11 227 29T89 147T36
326Q36 468 146 557T411 647Z" />
<glyph unicode="P" glyph-name="P" horiz-adv-x="622" d="M148 227V0H65V636H364Q468 636 533 583T598 440Q598 344 533 286T364 227H148ZM148 296H364Q432 296 471 336T511 440Q511 498 472 532T364 566H148V296Z" />
<glyph unicode="Q" glyph-name="Q" horiz-adv-x="847" d="M420 647Q520 647 605 608T743 495T795 326Q795 167 674 71L797 -45L734 -96L602 27Q520 -11 422 -11Q321 -11 236 29T98 147T45 326Q45 468 155 557T420 647ZM422 62Q543 62 624 135T706 326Q706 438
625 506T420 574Q300 574 216 505T131 326Q131 207 215 135T422 62Z" />
<glyph unicode="R" glyph-name="R" horiz-adv-x="714" d="M148 247V0H64V636H400Q504 636 561 587T619 456Q619 378 574 330T455 270Q484 255 508 225L698 0H590L432 187Q405 219 382 233T320 247H148ZM148 317H385Q450 317 492 352T534 452Q534 507 493 536T385
566H148V317Z" />
<glyph unicode="S" glyph-name="S" horiz-adv-x="616" d="M49 41V119Q161 62 303 62Q487 62 487 157Q487 199 447 221T274 275Q150 305 95 350T39 471Q39 544 111 595T311 647Q445 647 543 601V527Q438 574 311 574Q220 574 174 546T127 473Q127 425 169 398T325
343Q468 308 521 270T575 159Q575 82 507 36T303 -11Q158 -11 49 41Z" />
<glyph unicode="T" glyph-name="T" horiz-adv-x="614" d="M591 636V566H348V0H265V566H22V636H591Z" />
<glyph unicode="U" glyph-name="U" horiz-adv-x="764" d="M688 636V284Q688 137 607 63T382 -11Q242 -11 157 65T71 285V636H154V290Q154 179 218 121T382 62Q487 62 546 120T606 292V636H688Z" />
<glyph unicode="V" glyph-name="V" horiz-adv-x="801" d="M112 636L400 80H401L692 636H786L446 -5H355L15 636H112Z" />
<glyph unicode="W" glyph-name="W" horiz-adv-x="1102" d="M15 636H98L283 106L514 636H583L812 103L1005 636H1087L855 -4H778L547 524L315 -4H239L15 636Z" />
<glyph unicode="X" glyph-name="X" horiz-adv-x="686" d="M49 636H148L341 395L542 636H643L389 339L670 0H569L340 278L113 0H15L292 337L49 636Z" />
<glyph unicode="Y" glyph-name="Y" horiz-adv-x="647" d="M15 636H108L324 329L540 636H632L365 249V0H283V249L15 636Z" />
<glyph unicode="Z" glyph-name="Z" horiz-adv-x="555" d="M31 0V54L413 566H46V636H523V580L140 70H526V0H31Z" />
<glyph unicode="[" glyph-name="bracketleft" horiz-adv-x="417" d="M86 -88V690H341V621H169V-19H341V-88H86Z" />
<glyph unicode="\" glyph-name="backslash" horiz-adv-x="619" d="M507 -117L27 703H116L599 -117H507Z" />
<glyph unicode="]" glyph-name="bracketright" horiz-adv-x="417" d="M339 690V-88H84V-19H256V621H84V690H339Z" />
<glyph unicode="^" glyph-name="asciicircum" horiz-adv-x="630" d="M272 637H365L486 343H414L318 570L223 343H151L272 637Z" />
<glyph unicode="_" glyph-name="underscore" horiz-adv-x="513" d="M513 -145H0V-80H513V-145Z" />
<glyph unicode="`" glyph-name="grave" horiz-adv-x="630" d="M202 647H310L426 505H341L202 647Z" />
<glyph unicode="a" glyph-name="a" horiz-adv-x="544" d="M400 0V207Q347 215 290 215Q119 215 119 131Q119 93 156 73T252 53Q331 53 367 70L347 14Q338 -11 238 -11Q148 -11 92 26T36 130Q36 200 102 235T289 271Q340 271 400 264V299Q400 394 247 394Q160 394
78 360V427Q159 457 251 457Q365 457 423 417T481 301V0H400Z" />
<glyph unicode="b" glyph-name="b" horiz-adv-x="589" d="M155 722V436Q213 457 291 457Q416 457 489 394T562 228Q562 118 486 54T279 -11Q162 -11 74 20V722H155ZM155 74Q209 56 279 56Q370 56 422 101T475 228Q475 300 424 345T287 390Q213 390 155 367V74Z" />
<glyph unicode="c" glyph-name="c" horiz-adv-x="509" d="M486 96V26Q414 -11 309 -11Q183 -11 105 52T26 229Q26 326 106 391T310 457Q406 457 486 420V352Q402 390 316 390Q229 390 171 345T112 229Q112 146 170 101T316 56Q402 56 486 96Z" />
<glyph unicode="d" glyph-name="d" horiz-adv-x="589" d="M113 223Q113 145 172 101T320 56Q386 56 432 71V373Q373 390 317 390Q221 390 167 343T113 223ZM513 722V14Q426 -11 326 -11Q243 -11 177 13T69 91T26 223Q26 328 104 392T311 457Q371 457 432 443V722H513Z" />
<glyph unicode="e" glyph-name="e" horiz-adv-x="556" d="M300 390Q232 390 181 351T120 254Q185 227 275 227Q355 227 400 250T446 312Q446 352 406 371T300 390ZM275 159Q185 159 123 186Q132 125 188 91T320 56Q427 56 512 97V26Q434 -11 318 -11Q262 -11 213
3T122 44T57 117T33 224Q33 319 109 388T303 457Q408 457 469 417T531 311Q531 242 466 201T275 159Z" />
<glyph unicode="f" glyph-name="f" horiz-adv-x="421" d="M405 446V379H190V0H108V379H31V446H108V470Q108 571 165 622T325 674Q381 674 432 653V590Q383 612 333 612Q266 612 228 577T190 469V446H405Z" />
<glyph unicode="g" glyph-name="g" horiz-adv-x="532" d="M457 299Q457 223 401 180T253 137Q204 137 174 150Q143 116 143 88Q143 45 197 45H357Q439 45 484 8T530 -99Q530 -179 458 -228T274 -278Q162 -278 91 -237T20 -122Q20 -45 91 10Q66 37 66 74Q66 117
116 177Q53 222 53 298Q53 369 111 413T253 457Q294 457 332 446H509V392H409Q430 379 443 354T457 299ZM101 -110Q101 -157 150 -186T274 -215Q350 -215 399 -185T449 -104Q449 -22 330 -22H211Q170 -22 153 -17Q101 -56 101 -110ZM136 298Q136 250 169 223T255
195Q308 195 342 222T376 299Q376 345 343 372T255 399Q202 399 169 372T136 298Z" />
<glyph unicode="h" glyph-name="h" horiz-adv-x="586" d="M323 457Q422 457 479 410T536 270V0H455V257Q455 319 416 354T310 390Q238 390 193 348T148 229V0H67V722H148V390Q172 417 217 437T323 457Z" />
<glyph unicode="i" glyph-name="i" horiz-adv-x="247" d="M70 583T70 604T85 640T122 655T159 640T175 604T159 568T122 553T86 568ZM162 0H81V446H162V0Z" />
<glyph unicode="j" glyph-name="j" horiz-adv-x="280" d="M115 -79V446H196V-78Q196 -278 -5 -278Q-67 -278 -114 -257V-196Q-71 -213 -14 -213Q115 -213 115 -79ZM103 583T103 604T118 640T155 655T192 640T208 604T192 568T155 553T119 568Z" />
<glyph unicode="k" glyph-name="k" horiz-adv-x="552" d="M511 446L301 281L532 0H433L241 234L158 172V0H77V722H158V261L399 446H511Z" />
<glyph unicode="l" glyph-name="l" horiz-adv-x="337" d="M319 69V1Q284 -11 226 -11Q76 -11 76 145V722H157V146Q157 59 247 59Q290 59 319 69Z" />
<glyph unicode="m" glyph-name="m" horiz-adv-x="893" d="M640 457Q732 457 786 411T840 270V0H757V266Q757 324 723 357T631 390Q571 390 532 352T493 246V0H412V265Q412 324 379 357T287 390Q227 390 188 351T148 241V0H67V446H138V380Q160 413 202 435T301
457Q361 457 403 431T462 360Q486 403 533 430T640 457Z" />
<glyph unicode="n" glyph-name="n" horiz-adv-x="589" d="M323 457Q422 457 479 410T536 270V0H455V257Q455 319 416 354T310 390Q238 390 193 348T148 229V0H67V446H138V380Q200 457 323 457Z" />
<glyph unicode="o" glyph-name="o" horiz-adv-x="583" d="M292 56Q371 56 422 101T474 221Q474 300 423 345T291 390Q213 390 161 345T108 221Q108 146 161 101T292 56ZM291 457Q409 457 485 393T561 221Q561 115 485 52T292 -11Q177 -11 100 52T22 221Q22 329
99 393T291 457Z" />
<glyph unicode="p" glyph-name="p" horiz-adv-x="589" d="M155 229V89Q219 58 298 58Q382 58 432 102T483 225Q483 306 436 348T313 390Q249 390 202 344T155 229ZM304 -11Q220 -11 155 15V-267H74V446H144V376Q213 457 326 457Q436 457 503 395T570 223Q570 116
497 53T304 -11Z" />
<glyph unicode="q" glyph-name="q" horiz-adv-x="589" d="M432 -267V10Q380 -11 296 -11Q173 -11 99 53T25 220Q25 330 101 393T309 457Q424 457 514 427V-267H432ZM432 371Q378 390 309 390Q219 390 166 345T112 221Q112 147 166 103T309 59Q376 59 432 82V371Z" />
<glyph unicode="r" glyph-name="r" horiz-adv-x="412" d="M313 457Q354 457 392 445V371Q356 387 308 387Q240 387 199 346T158 220V0H77V446H148V373Q191 457 313 457Z" />
<glyph unicode="s" glyph-name="s" horiz-adv-x="466" d="M33 22V93Q130 54 226 54Q353 54 353 112Q353 144 320 158T195 194Q114 213 70 244T25 328Q25 389 82 423T242 457Q335 457 412 429V366Q335 394 247 394Q109 394 109 333Q109 310 131 295T187 272T265
252Q361 228 399 201T437 117Q437 58 384 24T229 -11Q123 -11 33 22Z" />
<glyph unicode="t" glyph-name="t" horiz-adv-x="431" d="M22 379V446H97V577H178V446H409V379H178V166Q178 59 297 59Q356 59 409 77V6Q356 -11 291 -11Q198 -11 148 28T97 166V379H22Z" />
<glyph unicode="u" glyph-name="u" horiz-adv-x="589" d="M279 -11Q180 -11 123 36T66 176V446H147V189Q147 127 186 92T292 56Q364 56 409 98T454 217V446H535V0H464V66Q401 -11 279 -11Z" />
<glyph unicode="v" glyph-name="v" horiz-adv-x="566" d="M15 446H103L284 84L464 446H551L333 0H237L15 446Z" />
<glyph unicode="w" glyph-name="w" horiz-adv-x="909" d="M416 446H494L666 84L807 446H894L714 0H624L454 353L285 0H196L15 446H100L243 83L416 446Z" />
<glyph unicode="x" glyph-name="x" horiz-adv-x="523" d="M37 446H136L266 289L396 446H495L318 234L513 0H413L266 180L117 0H18L213 234L37 446Z" />
<glyph unicode="y" glyph-name="y" horiz-adv-x="569" d="M462 446H547Q441 180 337 12Q268 -100 192 -158T6 -217Q-38 -217 -69 -206V-143Q-41 -150 -3 -150Q75 -150 130 -112T254 24Q180 106 120 219T27 446H112Q137 353 189 256T297 91Q383 237 462 446Z" />
<glyph unicode="z" glyph-name="z" horiz-adv-x="465" d="M31 0V64L322 379H42V446H433V389L139 67H433V0H31Z" />
<glyph unicode="{" glyph-name="braceleft" horiz-adv-x="386" d="M78 266H43V335H78Q114 335 114 375V527Q114 690 295 690H330V624H291Q242 624 221 602T199 528V383Q199 323 150 301Q199 273 199 218V73Q199 23 221 1T294 -21H330V-88H295Q203 -88 159 -50T114
75V229Q114 266 78 266Z" />
<glyph unicode="|" glyph-name="bar" horiz-adv-x="267" d="M175 722V-165H93V722H175Z" />
<glyph unicode="}" glyph-name="braceright" horiz-adv-x="396" d="M327 336H362V267H327Q291 267 291 227V75Q291 -88 110 -88H75V-22H114Q163 -22 184 0T206 74V219Q206 279 255 301Q206 329 206 384V529Q206 579 184 601T111 623H75V690H110Q202 690 246 652T291
527V373Q291 336 327 336Z" />
<glyph unicode="~" glyph-name="asciitilde" horiz-adv-x="602" d="M451 329H536Q523 191 404 191Q359 191 290 230Q230 264 202 264T155 245T134 190H62Q67 265 107 298T203 331Q252 331 321 292Q371 264 396 264Q449 264 451 329Z" />
</font>
</defs>
</svg>
