<?xml version="1.0" standalone="no"?> <!DOCTYPE svg PUBLIC "-//W3C//DTD SVG 1.0//EN" "http://www.w3.org/TR/2001/REC-SVG-20010904/DTD/svg10.dtd" > <svg xmlns="http://www.w3.org/2000/svg" width="100%" height="100%">
<defs >
<font id="best_future_bold_v1" horiz-adv-x="485" ><font-face
    font-family="Best Future V1"
    units-per-em="1000"
    panose-1="2 0 6 4 2 0 0 2 0 4"
    ascent="722"
    descent="-278"
    alphabetic="0" />
<missing-glyph horiz-adv-x="450" d="M0 0V630H450V0H0ZM225 355L378 585H72L225 355ZM252 315L405 85V544L252 315ZM72 45H378L225 274L72 45ZM45 544V85L198 315L45 544Z" />
<glyph unicode=" " glyph-name="space" horiz-adv-x="240" />
<glyph unicode="!" glyph-name="exclam" horiz-adv-x="307" d="M222 636V193H83V636H222ZM73 35T73 67T97 122T155 145Q187 145 210 122T234 67Q234 36 211 13T155 -10Q121 -10 97 12Z" />
<glyph unicode="&quot;" glyph-name="quotedbl" horiz-adv-x="517" d="M227 722V434H92V722H227ZM420 722V434H285V722H420Z" />
<glyph unicode="#" glyph-name="numbersign" horiz-adv-x="774" d="M676 131H509Q504 109 493 66T477 0H349Q354 22 365 65T381 131H270Q265 109 254 66T238 0H110Q112 8 124 56T143 131H55V256H174L200 359H55V484H231Q255 574 269 636H399L360 484H469Q493 574
507 636H637L598 484H676V359H567L541 256H676V131ZM328 359L302 256H412L438 359H328Z" />
<glyph unicode="$" glyph-name="dollar" horiz-adv-x="631" d="M49 40V163Q150 109 279 102V249Q276 249 272 251Q154 280 94 329T34 460Q34 530 98 583T279 645V722H348V646Q461 640 557 598V483Q459 527 348 532V360Q490 324 542 285T594 172Q594 95 532 46T348
-10V-106H279V-10Q144 -3 49 40ZM182 464Q182 433 203 414T279 378V531Q182 521 182 464ZM445 164Q445 187 425 201T348 231V103Q445 111 445 164Z" />
<glyph unicode="%" glyph-name="percent" horiz-adv-x="999" d="M238 647Q322 647 382 599T442 474Q442 391 383 345T238 299Q155 299 96 345T37 474Q37 551 96 599T238 647ZM238 391Q279 391 305 413T331 475Q331 511 305 532T238 554Q197 554 170 533T142 475Q142
436 170 414T238 391ZM818 636L312 0H166L672 636H818ZM747 336Q831 336 891 289T951 164Q951 81 892 35T747 -11Q664 -11 605 35T546 164Q546 241 605 288T747 336ZM747 80Q788 80 814 102T840 164Q840 200 814 221T747 243Q706 243 679 222T651 164Q651 125 679
103T747 80Z" />
<glyph unicode="&amp;" glyph-name="ampersand" horiz-adv-x="861" d="M623 0L317 249L279 280Q180 248 180 186Q180 145 215 124T308 102Q382 102 446 118L413 34Q402 6 375 -2Q340 -11 282 -11Q179 -11 106 41T33 190Q33 247 72 292T181 367Q132 423 132 483Q132
556 198 601T381 647Q463 647 547 624V514Q463 533 406 533Q337 533 309 519T280 476Q280 463 286 452T302 431T325 410T354 387L834 9Q833 8 832 5T829 0H623Z" />
<glyph unicode="&apos;" glyph-name="quotesingle" horiz-adv-x="322" d="M227 722V434H92V722H227Z" />
<glyph unicode="(" glyph-name="parenleft" horiz-adv-x="396" d="M325 -87H181Q83 85 83 302Q83 521 181 690H326Q223 490 223 306T325 -87Z" />
<glyph unicode=")" glyph-name="parenright" horiz-adv-x="385" d="M62 690H206Q304 518 304 301Q304 82 206 -87H61Q164 113 164 297T62 690Z" />
<glyph unicode="*" glyph-name="asterisk" horiz-adv-x="382" d="M73 593Q121 575 145 565L143 642H234Q234 629 234 604T233 565Q267 579 307 593Q317 566 339 512Q270 485 260 482L309 417L236 367L188 433L143 369L70 419L119 484L43 511L73 593Z" />
<glyph unicode="+" glyph-name="plus" horiz-adv-x="646" d="M387 0H247V160H82V294H247V446H387V294H552V160H387V0Z" />
<glyph unicode="," glyph-name="comma" horiz-adv-x="384" d="M171 -173H34L151 142H297L171 -173Z" />
<glyph unicode="-" glyph-name="hyphen" horiz-adv-x="516" d="M436 227H83V351H436V227Z" />
<glyph unicode="." glyph-name="period" horiz-adv-x="268" d="M55 34T55 66T79 121T137 144Q169 144 192 121T216 66Q216 35 193 12T137 -11Q103 -11 79 11Z" />
<glyph unicode="/" glyph-name="slash" horiz-adv-x="695" d="M651 703L165 -117H29L512 703H651Z" />
<glyph unicode="0" glyph-name="zero" horiz-adv-x="772" d="M396 647Q541 647 643 559T746 325Q746 169 645 79T396 -11Q305 -11 227 26T98 142T47 325Q47 469 151 558T396 647ZM311 117T397 117T539 172T596 325Q596 413 539 465T396 517T251 465T192 325Q192
228 251 173Z" />
<glyph unicode="1" glyph-name="one" horiz-adv-x="522" d="M425 636V0H286V470L113 378L47 496L305 636H425Z" />
<glyph unicode="2" glyph-name="two" horiz-adv-x="671" d="M60 119L395 355Q421 374 432 383T455 410T466 450Q466 484 433 506T328 528Q211 528 85 472V602Q198 647 327 647Q469 647 539 594T610 459Q610 392 576 345T479 254L310 134H609V0H60V119Z" />
<glyph unicode="3" glyph-name="three" horiz-adv-x="675" d="M220 385H323Q400 385 432 400T465 456Q465 487 431 508T323 529Q201 529 95 495V604Q202 647 322 647Q469 647 541 600T613 469Q613 370 500 329Q558 315 594 280T630 189Q630 102 552 46T337 -11Q203
-11 78 35V150Q201 108 327 108Q481 108 481 192Q481 231 446 245T334 260H220V385Z" />
<glyph unicode="4" glyph-name="four" horiz-adv-x="758" d="M581 636V267H700V131H581V0H444V131H58V252L429 636H581ZM236 267H444V480L236 267Z" />
<glyph unicode="5" glyph-name="five" horiz-adv-x="684" d="M591 508H242L224 401Q304 406 323 406Q635 406 635 203Q635 106 553 48T325 -11Q172 -11 66 36V164Q184 114 318 114Q488 114 488 204Q488 293 290 293Q200 293 109 276L69 313L124 636H591V508Z" />
<glyph unicode="6" glyph-name="six" horiz-adv-x="718" d="M379 107Q456 107 496 134T537 210Q537 255 497 280T379 305Q310 305 268 279T225 209Q225 159 267 133T379 107ZM391 423Q533 423 608 371T684 212Q684 118 602 54T385 -11Q291 -11 219 22T112 119Q67
203 67 317Q67 647 418 647Q536 647 639 606V487Q518 526 427 526Q321 526 272 485T221 371Q289 423 391 423Z" />
<glyph unicode="7" glyph-name="seven" horiz-adv-x="634" d="M90 0L418 503H48V636H598V531L263 0H90Z" />
<glyph unicode="8" glyph-name="eight" horiz-adv-x="715" d="M362 647Q505 647 580 598T655 461Q655 370 554 334Q612 320 647 283T683 188Q683 95 603 42T362 -11Q207 -11 126 42T44 190Q44 243 82 279T181 334Q73 372 73 461Q73 546 156 596T362 647ZM362 104Q524
104 524 189Q524 277 362 277Q197 277 197 189Q197 150 241 127T362 104ZM362 379Q502 379 502 459Q502 538 362 538Q296 538 258 518T220 457Q220 419 257 399T362 379Z" />
<glyph unicode="9" glyph-name="nine" horiz-adv-x="674" d="M319 529Q242 529 202 502T161 426Q161 381 201 356T319 331Q388 331 430 357T473 427Q473 477 431 503T319 529ZM307 213Q165 213 90 265T14 424Q14 518 96 582T313 647Q407 647 479 614T586 517Q631
433 631 319Q631 -11 280 -11Q162 -11 59 30V149Q180 110 271 110Q377 110 426 151T477 265Q409 213 307 213Z" />
<glyph unicode=":" glyph-name="colon" horiz-adv-x="279" d="M61 390T61 422T85 477T143 500Q175 500 198 477T222 422Q222 391 199 368T143 345Q109 345 85 367ZM61 34T61 66T85 121T143 144Q175 144 198 121T222 66Q222 35 199 12T143 -11Q109 -11 85 11Z" />
<glyph unicode=";" glyph-name="semicolon" horiz-adv-x="366" d="M171 -173H34L151 142H297L171 -173ZM142 390T142 422T166 477T224 500Q256 500 279 477T303 422Q303 391 280 368T224 345Q190 345 166 367Z" />
<glyph unicode="&lt;" glyph-name="less" horiz-adv-x="718" d="M398 589H618L250 296L615 0H398L98 246V347L398 589Z" />
<glyph unicode="=" glyph-name="equal" horiz-adv-x="594" d="M521 282H64V407H521V282ZM521 49H64V174H521V49Z" />
<glyph unicode="&gt;" glyph-name="greater" horiz-adv-x="653" d="M34 589H254L554 347V246L254 0H37L402 296L34 589Z" />
<glyph unicode="?" glyph-name="question" horiz-adv-x="476" d="M328 299Q288 262 288 209V193H151V208Q151 270 165 301T229 373Q265 403 280 424T295 472V475Q291 529 199 529T35 493V612Q115 647 196 647Q320 647 375 600T430 475Q429 424 403 385T328 299ZM139
36T139 68T163 123T221 146Q254 146 277 123T300 68T277 13T221 -10Q187 -10 163 13Z" />
<glyph unicode="@" glyph-name="at" horiz-adv-x="997" d="M588 290V299Q588 330 560 344T461 358Q388 358 311 327V425Q391 454 479 454Q713 454 713 295V157Q713 111 756 111Q784 111 797 144T811 262Q811 385 723 466T493 548Q353 548 262 454T170 215T271
-13T531 -97Q678 -97 796 -31V-132Q744 -160 672 -176T529 -193Q406 -193 301 -145T129 -2T63 215Q63 399 187 523T494 647Q676 647 796 535T917 262Q917 131 869 73T742 14Q671 14 630 48T588 153V210Q553 217 513 217Q396 217 396 162Q396 136 422 123T487 109Q530
109 569 120L539 46Q532 29 515 23T459 16Q376 16 324 52T272 158Q272 223 332 259T510 295Q553 295 588 290Z" />
<glyph unicode="A" glyph-name="A" horiz-adv-x="905" d="M880 0H714L482 426Q462 462 449 499Q441 476 413 425L303 223Q327 245 375 245H558L496 129H293Q251 129 233 94L182 0H16L372 637H523L880 0Z" />
<glyph unicode="B" glyph-name="B" horiz-adv-x="678" d="M403 0H65V636H431Q518 636 571 588T625 466Q625 373 527 329Q575 313 607 276T639 189Q639 102 577 51T403 0ZM391 520H204V376H392Q433 376 455 396T477 450Q477 480 455 500T391 520ZM401 262H204V116H401Q446
116 468 137T491 192Q491 223 469 242T401 262Z" />
<glyph unicode="C" glyph-name="C" horiz-adv-x="760" d="M719 166V38Q605 -11 457 -11Q339 -11 245 27T93 143T35 327Q35 473 147 560T453 647Q595 647 719 598V470Q594 528 455 528Q333 528 258 475T182 328Q182 226 258 168T458 110Q605 110 719 166Z" />
<glyph unicode="D" glyph-name="D" horiz-adv-x="755" d="M73 636H395Q558 636 642 551T727 324Q727 181 638 91T395 0H73V636ZM379 520H219V116H379Q476 116 528 171T581 324Q581 411 527 465T379 520Z" />
<glyph unicode="E" glyph-name="E" horiz-adv-x="603" d="M568 116V0H65V636H568V520H203V363H549V247H203V116H568Z" />
<glyph unicode="F" glyph-name="F" horiz-adv-x="595" d="M203 217V0H65V636H568V520H203V333H548V217H203Z" />
<glyph unicode="G" glyph-name="G" horiz-adv-x="753" d="M713 309V35Q596 -11 452 -11Q338 -11 245 26T94 142T35 328Q35 470 146 558T446 647Q579 647 700 600V479Q574 528 454 528Q337 528 260 476T183 330Q183 221 260 166T457 110Q528 110 576 123V309H713Z" />
<glyph unicode="H" glyph-name="H" horiz-adv-x="822" d="M203 202V0H64V636H203V322Q228 363 285 363H590L530 246H248Q228 246 216 235T203 202ZM746 636V0H607V636H746Z" />
<glyph unicode="I" glyph-name="I" horiz-adv-x="304" d="M222 636V0H84V636H222Z" />
<glyph unicode="J" glyph-name="J" horiz-adv-x="404" d="M30 5V129Q75 110 126 110Q234 110 234 212V636H372V218Q372 -11 159 -11Q73 -11 30 5Z" />
<glyph unicode="K" glyph-name="K" horiz-adv-x="751" d="M707 636L411 382L726 0H549L307 294L206 208V0H67V636H206V374L511 636H707Z" />
<glyph unicode="L" glyph-name="L" horiz-adv-x="585" d="M557 116V0H66V636H204V116H557Z" />
<glyph unicode="M" glyph-name="M" horiz-adv-x="860" d="M217 636L428 368L636 636H789V0H650V433L430 158L204 433V0H66V636H217Z" />
<glyph unicode="N" glyph-name="N" horiz-adv-x="759" d="M213 636L549 222V636H688V0H556L203 436V0H65V636H213Z" />
<glyph unicode="O" glyph-name="O" horiz-adv-x="822" d="M412 647Q567 647 676 557T786 326Q786 174 678 82T413 -11Q255 -11 146 82T36 326Q36 468 145 557T412 647ZM414 110Q515 110 576 170T638 326Q638 417 577 472T412 528Q311 528 247 471T182 326Q182
228 246 169T414 110Z" />
<glyph unicode="P" glyph-name="P" horiz-adv-x="663" d="M205 201V0H66V636H374Q487 636 557 579T627 424Q627 317 554 259T365 201H205ZM205 318H371Q423 318 452 347T482 424Q482 467 452 493T371 520H205V318Z" />
<glyph unicode="Q" glyph-name="Q" horiz-adv-x="847" d="M421 647Q576 647 685 557T795 326Q795 181 694 87L814 -30L714 -111L584 19Q507 -11 422 -11Q264 -11 155 82T45 326Q45 468 154 557T421 647ZM423 110Q524 110 585 170T647 326Q647 417 586 472T421
528Q320 528 256 471T191 326Q191 228 255 169T423 110Z" />
<glyph unicode="R" glyph-name="R" horiz-adv-x="759" d="M311 221H204V0H65V636H414Q520 636 582 584T644 444Q644 377 604 330T502 262Q528 246 563 205L732 0H552L411 172Q371 221 311 221ZM204 520V338H390Q442 338 471 363T500 437Q500 477 471 498T390 520H204Z" />
<glyph unicode="S" glyph-name="S" horiz-adv-x="632" d="M49 40V163Q103 134 173 118T306 102Q445 102 445 164Q445 193 412 209T272 251Q154 280 94 329T34 460Q34 536 110 591T320 647Q446 647 557 598V483Q449 533 322 533Q182 533 182 464Q182 427 214 407T337
363Q486 326 540 287T594 172Q594 88 521 39T306 -11Q243 -11 170 4T49 40Z" />
<glyph unicode="T" glyph-name="T" horiz-adv-x="614" d="M594 636V520H380V0H241V520H25V636H594Z" />
<glyph unicode="U" glyph-name="U" horiz-adv-x="764" d="M698 636V285Q698 138 615 64T386 -11Q241 -11 156 67T71 287V636H210V283Q210 201 260 156T388 110Q467 110 512 154T558 283V636H698Z" />
<glyph unicode="V" glyph-name="V" horiz-adv-x="815" d="M15 636H175L366 220Q392 166 405 127Q413 149 446 220L639 636H798L483 -1H330L15 636Z" />
<glyph unicode="W" glyph-name="W" horiz-adv-x="1101" d="M13 636H154L297 182L487 636H601L787 177L944 636H1083L860 0H728L541 444L351 0H223L13 636Z" />
<glyph unicode="X" glyph-name="X" horiz-adv-x="743" d="M56 636H220L367 433L528 636H696L449 338L721 0H553L364 240L181 0H19L285 335L56 636Z" />
<glyph unicode="Y" glyph-name="Y" horiz-adv-x="692" d="M18 636H172L344 370L518 636H671L414 236V0H275V236L18 636Z" />
<glyph unicode="Z" glyph-name="Z" horiz-adv-x="595" d="M32 0V90L364 520H47V636H552V544L214 116H553V0H32Z" />
<glyph unicode="[" glyph-name="bracketleft" horiz-adv-x="458" d="M88 -88V690H355V574H227V28H355V-88H88Z" />
<glyph unicode="\" glyph-name="backslash" horiz-adv-x="728" d="M530 -117L44 703H183L666 -117H530Z" />
<glyph unicode="]" glyph-name="bracketright" horiz-adv-x="474" d="M362 690V-88H95V28H223V574H95V690H362Z" />
<glyph unicode="^" glyph-name="asciicircum" horiz-adv-x="692" d="M544 305H412L347 476L284 305H149L285 636H409L544 305Z" />
<glyph unicode="_" glyph-name="underscore" horiz-adv-x="513" d="M513 -170H0V-68H513V-170Z" />
<glyph unicode="`" glyph-name="grave" horiz-adv-x="630" d="M190 647H359L467 505H314L190 647Z" />
<glyph unicode="a" glyph-name="a" horiz-adv-x="544" d="M369 283V296Q369 357 249 357Q153 357 78 322V427Q164 457 257 457Q505 457 505 292V0H369V195Q332 202 293 202Q168 202 168 144Q168 116 195 102T264 87Q314 87 353 98L320 18Q312 -1 292 -6T234 -11Q146
-11 91 27T36 139Q36 209 100 248T290 288Q327 288 369 283Z" />
<glyph unicode="b" glyph-name="b" horiz-adv-x="604" d="M210 722V447Q252 457 305 457Q427 457 498 395T570 230Q570 119 494 54T282 -11Q165 -11 74 20V722H210ZM210 113Q245 105 283 105Q350 105 386 136T423 229Q423 282 385 313T283 344Q247 344 210 333V113Z" />
<glyph unicode="c" glyph-name="c" horiz-adv-x="514" d="M486 134V19Q415 -11 316 -11Q183 -11 105 52T26 228Q26 326 106 391T317 457Q403 457 486 425V314Q406 344 332 344Q257 344 214 313T170 228Q170 169 213 137T330 105Q412 105 486 134Z" />
<glyph unicode="d" glyph-name="d" horiz-adv-x="589" d="M518 722V15Q428 -11 323 -11Q241 -11 176 12T69 90T26 223Q26 330 104 393T301 457Q327 457 381 450V722H518ZM172 223Q172 169 210 137T311 105Q356 105 381 111V335Q336 344 310 344Q246 344 209 312T172 223Z" />
<glyph unicode="e" glyph-name="e" horiz-adv-x="556" d="M296 158Q233 158 179 177Q186 135 226 113T329 91Q437 91 519 128V23Q439 -11 315 -11Q195 -11 114 50T33 224Q33 323 108 390T304 457Q411 457 474 416T538 299Q538 236 476 197T296 158ZM305 365Q255
365 220 338T179 271Q221 253 288 253Q405 253 405 309Q405 333 379 349T305 365Z" />
<glyph unicode="f" glyph-name="f" horiz-adv-x="438" d="M421 446V337H238V0H101V337H31V446H101V474Q101 674 330 674Q392 674 448 650V550Q395 569 343 569Q286 569 262 545T238 473V446H421Z" />
<glyph unicode="g" glyph-name="g" horiz-adv-x="534" d="M42 296Q42 369 104 413T254 457Q300 457 339 446H516V362H447Q466 329 466 296Q466 220 406 176T252 132Q207 132 179 141Q160 119 160 99Q160 59 207 59H362Q442 59 489 22T537 -87Q537 -176 466 -227T275
-278Q160 -278 88 -237T16 -122Q16 -51 71 2Q44 30 44 73Q44 126 95 182Q42 228 42 296ZM142 -97Q142 -138 177 -159T277 -181Q338 -181 371 -159T405 -97Q405 -41 318 -41H197Q196 -41 169 -38Q142 -65 142 -97ZM180 296Q180 263 201 244T255 224Q290 224 310
243T330 296Q330 328 310 347T255 367Q223 367 202 348T180 296Z" />
<glyph unicode="h" glyph-name="h" horiz-adv-x="621" d="M345 457Q445 457 504 409T563 262V0H426V240Q426 286 396 313T319 341T241 315T208 241V0H71V722H208V412Q260 457 345 457Z" />
<glyph unicode="i" glyph-name="i" horiz-adv-x="298" d="M72 551T72 584T95 639T152 662T208 640T232 584T209 529T152 507T96 529ZM220 0H84V446H220V0Z" />
<glyph unicode="j" glyph-name="j" horiz-adv-x="307" d="M71 551T71 584T94 639T152 662Q185 662 208 640T231 584T208 529T152 507Q118 507 95 529ZM-118 -213V-113Q-69 -131 -21 -131Q83 -131 83 -36V446H220V-37Q220 -236 -5 -236Q-67 -236 -118 -213Z" />
<glyph unicode="k" glyph-name="k" horiz-adv-x="612" d="M573 446L368 280L596 0H420L263 195L216 157V0H79V722H216V311L384 446H573Z" />
<glyph unicode="l" glyph-name="l" horiz-adv-x="396" d="M356 116V5Q303 -11 248 -11Q78 -11 78 165V722H215V174Q215 106 290 106Q325 106 356 116Z" />
<glyph unicode="m" glyph-name="m" horiz-adv-x="893" d="M628 457Q726 457 783 410T840 263V0H704V258Q704 297 679 319T611 341Q575 341 548 317T521 252V0H384V257Q384 298 361 319T295 341Q249 341 226 314T203 245V0H67V446H183V395Q204 422 243 439T330
456Q428 453 472 389Q526 457 628 457Z" />
<glyph unicode="n" glyph-name="n" horiz-adv-x="623" d="M343 457Q443 457 502 409T561 262V0H424V240Q424 289 396 315T317 341Q268 341 237 313T206 236V0H69V446H185V394Q238 457 343 457Z" />
<glyph unicode="o" glyph-name="o" horiz-adv-x="583" d="M291 457Q409 457 485 392T561 221Q561 114 486 52T292 -11Q175 -11 99 51T22 221Q22 327 98 392T291 457ZM292 98Q349 98 383 132T418 222T383 312T291 347Q238 347 202 312T165 222T201 133T292 98Z" />
<glyph unicode="p" glyph-name="p" horiz-adv-x="611" d="M212 1V-267H75V446H191V393Q212 421 253 439T343 457Q449 457 517 395T585 223Q585 118 513 54T317 -11Q260 -11 212 1ZM304 104Q364 104 401 136T439 229Q439 283 407 312T320 341Q269 341 241 313T212
240V119Q247 104 304 104Z" />
<glyph unicode="q" glyph-name="q" horiz-adv-x="588" d="M384 -267V0Q345 -11 296 -11Q176 -11 101 53T25 218Q25 329 101 393T312 457Q420 457 521 427V-267H384ZM384 336Q353 344 311 344Q246 344 209 312T171 220Q171 166 209 136T311 105Q351 105 384 115V336Z" />
<glyph unicode="r" glyph-name="r" horiz-adv-x="431" d="M339 457Q377 457 414 446V326Q381 341 334 341Q277 341 247 310T216 219V0H79V446H195V394Q242 457 339 457Z" />
<glyph unicode="s" glyph-name="s" horiz-adv-x="466" d="M33 22V127Q122 86 227 86Q266 86 288 96T311 121Q311 132 304 139T280 153T233 167T160 185Q25 218 25 322Q25 387 81 422T248 457Q333 457 427 431V338Q342 368 258 368Q214 368 191 357T167 326Q167
310 183 300T227 282T294 264Q390 238 423 210T457 128Q457 64 403 27T235 -11Q119 -11 33 22Z" />
<glyph unicode="t" glyph-name="t" horiz-adv-x="443" d="M92 337H22V446H92V577H229V446H418V337H229V188Q229 143 253 125T329 106Q373 106 418 121V6Q360 -11 306 -11Q197 -11 145 31T92 187V337Z" />
<glyph unicode="u" glyph-name="u" horiz-adv-x="620" d="M286 -11Q185 -11 126 36T67 183V446H204V205Q204 157 234 131T313 104Q364 104 393 131T422 209V446H559V0H443V51Q391 -11 286 -11Z" />
<glyph unicode="v" glyph-name="v" horiz-adv-x="617" d="M18 446H165L307 137L450 446H595L389 0H224L18 446Z" />
<glyph unicode="w" glyph-name="w" horiz-adv-x="916" d="M16 446H161L265 138L395 446H520L648 138L753 446H899L729 0H580L457 283L336 0H187L16 446Z" />
<glyph unicode="x" glyph-name="x" horiz-adv-x="569" d="M46 446H206L291 329L381 446H543L376 233L550 0H394L291 135L185 0H19L201 233L46 446Z" />
<glyph unicode="y" glyph-name="y" horiz-adv-x="657" d="M476 446H619Q526 199 446 57Q363 -92 282 -159T77 -226Q13 -226 -32 -213V-109Q2 -120 64 -120Q129 -119 174 -85T269 23Q193 105 130 221T38 446H187Q206 375 250 293T345 149Q425 295 476 446Z" />
<glyph unicode="z" glyph-name="z" horiz-adv-x="490" d="M37 0V103L273 339H50V446H457V348L221 110H456V0H37Z" />
<glyph unicode="{" glyph-name="braceleft" horiz-adv-x="438" d="M64 239H43V365H67Q110 365 110 410V504Q110 608 159 649T319 690H368V565H299Q247 565 247 512V396Q247 321 184 302Q247 278 247 217V89Q247 36 302 36H368V-88H319Q208 -88 159 -48T110 96V193Q110
215 97 227T64 239Z" />
<glyph unicode="|" glyph-name="bar" horiz-adv-x="354" d="M238 722V-165H100V722H238Z" />
<glyph unicode="}" glyph-name="braceright" horiz-adv-x="445" d="M376 363H397V237H373Q330 237 330 192V98Q330 -6 281 -47T121 -88H72V37H141Q193 37 193 90V206Q193 281 256 300Q193 324 193 385V513Q193 566 138 566H72V690H121Q232 690 281 650T330 506V409Q330
387 343 375T376 363Z" />
<glyph unicode="~" glyph-name="asciitilde" horiz-adv-x="602" d="M396 359H537Q537 260 506 215T404 169Q365 169 303 200T212 231Q197 231 185 218T171 172H42Q42 271 85 317T188 363Q237 363 296 331Q308 323 326 314T359 304Q373 304 384 317T396 359Z" />
</font>
</defs>
</svg>
